<mxfile host="app.diagrams.net" modified="2023-02-07T18:51:51.321Z" agent="5.0 (Windows NT 10.0; Win64; x64) AppleWebKit/537.36 (KHTML, like Gecko) Chrome/109.0.0.0 Safari/537.36" etag="RiO24hlZaALUod3m_xo4" version="20.8.18" type="github">
  <diagram name="Page-1" id="WVAjT4nHFo0zb_2ehgD_">
    <mxGraphModel dx="691" dy="591" grid="1" gridSize="10" guides="1" tooltips="1" connect="1" arrows="1" fold="1" page="1" pageScale="1" pageWidth="850" pageHeight="1100" math="0" shadow="0">
      <root>
        <mxCell id="0" />
        <mxCell id="1" parent="0" />
        <mxCell id="ACkWUpYoQ0h37io_j_W4-1" value="Ectoplasmic Entrapment&lt;br&gt;" style="ellipse;whiteSpace=wrap;html=1;" vertex="1" parent="1">
          <mxGeometry x="150" y="170" width="140" height="130" as="geometry" />
        </mxCell>
        <mxCell id="ACkWUpYoQ0h37io_j_W4-2" value="enemy&lt;br&gt;" style="ellipse;whiteSpace=wrap;html=1;" vertex="1" parent="1">
          <mxGeometry x="340" y="175" width="150" height="125" as="geometry" />
        </mxCell>
        <mxCell id="ACkWUpYoQ0h37io_j_W4-3" value="" style="endArrow=classic;html=1;rounded=0;exitX=1;exitY=0.5;exitDx=0;exitDy=0;entryX=0;entryY=0.5;entryDx=0;entryDy=0;" edge="1" parent="1" source="ACkWUpYoQ0h37io_j_W4-1" target="ACkWUpYoQ0h37io_j_W4-2">
          <mxGeometry width="50" height="50" relative="1" as="geometry">
            <mxPoint x="330" y="320" as="sourcePoint" />
            <mxPoint x="380" y="270" as="targetPoint" />
          </mxGeometry>
        </mxCell>
      </root>
    </mxGraphModel>
  </diagram>
</mxfile>
